<svg width="165" height="52" viewBox="0 0 165 52" fill="none" xmlns="http://www.w3.org/2000/svg">
<g clip-path="url(#clip0_105_10)">
<path d="M27.549 18.343C26.465 16.997 24.823 15.973 22.537 15.417C24.032 14.861 25.175 14.13 25.937 13.252C27.08 11.819 27.285 10.21 27.285 8.25C27.285 5.938 26.465 3.978 24.853 2.428C23.21 0.878 20.925 0.0579999 17.848 0.0579999H0V33H16.822C17.555 33 18.992 32.853 21.16 32.532C22.801 32.327 24.003 31.917 24.823 31.449C26.113 30.63 27.197 29.548 27.959 28.202C28.7168 26.7902 29.1097 25.2113 29.102 23.609C29.102 21.502 28.575 19.747 27.549 18.343V18.343ZM9.847 6.67H14.127C15.621 6.67 16.647 6.933 17.262 7.489C17.877 8.045 18.142 8.776 18.142 9.712C18.142 10.736 17.877 11.556 17.262 12.082C16.646 12.638 15.621 12.902 14.068 12.902H9.848V6.67H9.847ZM18.317 24.896C17.643 25.51 16.412 25.832 14.8 25.832H9.847V19.192H14.8C16.5 19.192 17.73 19.454 18.405 20.069C19.079 20.683 19.431 21.415 19.431 22.439C19.343 23.492 18.991 24.282 18.317 24.896ZM30.186 0.0279999H40.502V24.428H49.792V32.882H30.186V0.0279999Z" fill="#F20000"/>
<path d="M59.874 0.0279999H51.316V8.571H59.874V0.0279999Z" fill="#FFC107"/>
<path d="M51.316 10.123H59.874V32.943H51.316V10.123V10.123ZM91.263 32.942H61.252L75.232 8.542H61.252V0H89.212L76.168 24.4H90.763V0H99.321V14.716L109.785 0H119.075L108.613 15.505L121.039 32.912H110.576L99.322 17.817V32.912" fill="#F20000"/>
<path d="M131.795 0.0279999C122.71 0.0279999 115.295 7.401 115.295 16.499C115.295 25.569 122.68 32.97 131.795 32.97C140.88 32.97 148.295 25.598 148.295 16.5C148.295 7.43 140.91 0.0279999 131.795 0.0279999V0.0279999ZM131.795 24.428C127.37 24.428 123.853 20.917 123.853 16.499C123.853 12.082 127.37 8.571 131.795 8.571C136.22 8.571 139.737 12.081 139.737 16.499C139.737 20.917 136.22 24.427 131.795 24.427V24.428Z" fill="#F20000"/>
<path d="M165 16.646L156.853 32.912H148.383L156.53 16.529L148.324 0L157.351 0.059L165 16.646Z" fill="#FFC107"/>
</g>
<path d="M2.29688 41.6035H3.56152L3.45215 44.3721C3.4248 45.0739 3.34505 45.68 3.21289 46.1904C3.08073 46.7008 2.91211 47.1361 2.70703 47.4961C2.50195 47.8516 2.27181 48.1501 2.0166 48.3916C1.76595 48.6331 1.50618 48.8359 1.2373 49H0.608398L0.642578 47.9678L0.902344 47.9609C1.05273 47.7832 1.19857 47.6009 1.33984 47.4141C1.48112 47.2227 1.611 46.9971 1.72949 46.7373C1.84798 46.473 1.94596 46.1517 2.02344 45.7734C2.10547 45.3906 2.15788 44.9235 2.18066 44.3721L2.29688 41.6035ZM2.61133 41.6035H7.06152V49H5.79688V42.7725H2.61133V41.6035ZM0.321289 47.9609H8.01172V51.1807H6.74707V49H1.58594V51.1807H0.314453L0.321289 47.9609ZM14.3555 41.6035V42.6494H10.7803V41.6035H14.3555ZM15.4697 41.6035V49H14.2051V41.6035H15.4697ZM10.4727 41.6035H11.7441L11.5527 45.1719C11.5208 45.7233 11.4684 46.2109 11.3955 46.6348C11.3271 47.054 11.2314 47.4141 11.1084 47.7148C10.9899 48.0156 10.8395 48.2617 10.6572 48.4531C10.4795 48.64 10.2653 48.779 10.0146 48.8701C9.764 48.9567 9.47461 49 9.14648 49H8.75V47.8857L9.02344 47.8652C9.2194 47.8516 9.38574 47.806 9.52246 47.7285C9.66374 47.651 9.78223 47.5371 9.87793 47.3867C9.97363 47.2318 10.0511 47.0335 10.1104 46.792C10.1742 46.5505 10.222 46.2633 10.2539 45.9307C10.2904 45.598 10.3177 45.2106 10.3359 44.7686L10.4727 41.6035ZM19.0039 45.4727H20.3711L18.2314 49H16.8643L19.0039 45.4727ZM20.0635 41.6035H23.1533V49H21.8887V42.6289H20.0635C19.7035 42.6289 19.4095 42.6904 19.1816 42.8135C18.9538 42.932 18.7874 43.0869 18.6826 43.2783C18.5778 43.4697 18.5254 43.668 18.5254 43.873C18.5254 44.0736 18.5732 44.2673 18.6689 44.4541C18.7646 44.6364 18.915 44.7868 19.1201 44.9053C19.3252 45.0238 19.5895 45.083 19.9131 45.083H22.2305V46.1221H19.9131C19.4893 46.1221 19.1133 46.0651 18.7852 45.9512C18.457 45.8372 18.179 45.68 17.9512 45.4795C17.7233 45.2744 17.5501 45.0352 17.4316 44.7617C17.3132 44.4837 17.2539 44.1829 17.2539 43.8594C17.2539 43.5358 17.3154 43.2373 17.4385 42.9639C17.5661 42.6904 17.7484 42.4512 17.9854 42.2461C18.2269 42.041 18.5208 41.8838 18.8672 41.7744C19.2181 41.6605 19.6169 41.6035 20.0635 41.6035ZM33.4072 38.3838H34.4463C34.4463 38.8304 34.3779 39.1859 34.2412 39.4502C34.1045 39.71 33.9176 39.9105 33.6807 40.0518C33.4482 40.193 33.1839 40.3001 32.8877 40.373C32.596 40.446 32.293 40.5166 31.9785 40.585C31.5866 40.667 31.222 40.7969 30.8848 40.9746C30.5521 41.1478 30.265 41.3939 30.0234 41.7129C29.7865 42.0319 29.611 42.4466 29.4971 42.957C29.3877 43.4674 29.3581 44.0986 29.4082 44.8506V45.4795H28.3691V44.8506C28.3691 44.0075 28.4489 43.2715 28.6084 42.6426C28.7725 42.0137 29.0026 41.4827 29.2988 41.0498C29.5951 40.6169 29.946 40.2728 30.3516 40.0176C30.7617 39.7624 31.2129 39.5869 31.7051 39.4912C32.0605 39.4229 32.3659 39.3499 32.6211 39.2725C32.8763 39.1904 33.07 39.0811 33.2021 38.9443C33.3389 38.8076 33.4072 38.6208 33.4072 38.3838ZM31.9102 42.0273C32.3932 42.0273 32.8239 42.1117 33.2021 42.2803C33.5804 42.4489 33.9017 42.6836 34.166 42.9844C34.4303 43.2852 34.6309 43.6406 34.7676 44.0508C34.9089 44.4564 34.9795 44.8984 34.9795 45.377V45.5273C34.9795 46.0423 34.9043 46.5208 34.7539 46.9629C34.6081 47.4004 34.3916 47.7832 34.1045 48.1113C33.8219 48.4349 33.4756 48.6878 33.0654 48.8701C32.6598 49.0524 32.1973 49.1436 31.6777 49.1436C31.1582 49.1436 30.6934 49.0524 30.2832 48.8701C29.8776 48.6878 29.5312 48.4349 29.2441 48.1113C28.957 47.7832 28.7383 47.4004 28.5879 46.9629C28.4421 46.5208 28.3691 46.0423 28.3691 45.5273V45.377C28.3691 45.263 28.3896 45.1514 28.4307 45.042C28.4717 44.9326 28.5218 44.821 28.5811 44.707C28.6449 44.5931 28.7018 44.4723 28.752 44.3447C28.9206 43.9346 29.1507 43.554 29.4424 43.2031C29.7386 42.8522 30.0918 42.5697 30.502 42.3555C30.9167 42.1367 31.3861 42.0273 31.9102 42.0273ZM31.6641 43.0596C31.1992 43.0596 30.8164 43.1667 30.5156 43.3809C30.2194 43.5951 29.9984 43.8799 29.8525 44.2354C29.7067 44.5863 29.6338 44.9668 29.6338 45.377V45.5273C29.6338 45.8737 29.6748 46.2018 29.7568 46.5117C29.8389 46.8216 29.9619 47.0973 30.126 47.3389C30.2946 47.5758 30.5065 47.7627 30.7617 47.8994C31.0215 48.0361 31.3268 48.1045 31.6777 48.1045C32.0286 48.1045 32.3317 48.0361 32.5869 47.8994C32.8421 47.7627 33.0518 47.5758 33.2158 47.3389C33.3799 47.0973 33.5029 46.8216 33.585 46.5117C33.667 46.2018 33.708 45.8737 33.708 45.5273V45.377C33.708 45.0671 33.667 44.7731 33.585 44.4951C33.5029 44.2171 33.3776 43.971 33.209 43.7568C33.0449 43.5426 32.833 43.374 32.5732 43.251C32.318 43.1234 32.015 43.0596 31.6641 43.0596ZM37.6592 46.9971L41.0703 41.6035H42.3418V49H41.0703V43.6064L37.6592 49H36.4014V41.6035H37.6592V46.9971ZM47.1338 45.4658H45.7734V44.6865H47.0312C47.3822 44.6865 47.6602 44.6432 47.8652 44.5566C48.0703 44.4655 48.2161 44.3402 48.3027 44.1807C48.3893 44.0212 48.4326 43.8343 48.4326 43.6201C48.4326 43.4287 48.3825 43.2487 48.2822 43.0801C48.1865 42.9069 48.0316 42.7679 47.8174 42.6631C47.6032 42.5537 47.3161 42.499 46.9561 42.499C46.6644 42.499 46.4001 42.5514 46.1631 42.6562C45.9261 42.7565 45.737 42.8955 45.5957 43.0732C45.459 43.2464 45.3906 43.4424 45.3906 43.6611H44.126C44.126 43.21 44.2536 42.8226 44.5088 42.499C44.7686 42.1709 45.1126 41.918 45.541 41.7402C45.974 41.5625 46.4456 41.4736 46.9561 41.4736C47.3844 41.4736 47.7673 41.5215 48.1045 41.6172C48.4463 41.7083 48.7357 41.8451 48.9727 42.0273C49.2096 42.2051 49.3896 42.4284 49.5127 42.6973C49.6403 42.9616 49.7041 43.2692 49.7041 43.6201C49.7041 43.8708 49.6449 44.1077 49.5264 44.3311C49.4079 44.5544 49.237 44.7526 49.0137 44.9258C48.7904 45.0944 48.5192 45.2266 48.2002 45.3223C47.8857 45.418 47.5303 45.4658 47.1338 45.4658ZM45.7734 44.9873H47.1338C47.5758 44.9873 47.9655 45.0306 48.3027 45.1172C48.64 45.1992 48.9225 45.3223 49.1504 45.4863C49.3783 45.6504 49.5492 45.8532 49.6631 46.0947C49.7816 46.3317 49.8408 46.6051 49.8408 46.915C49.8408 47.2614 49.7702 47.5736 49.6289 47.8516C49.4922 48.125 49.2962 48.3574 49.041 48.5488C48.7858 48.7402 48.4805 48.8861 48.125 48.9863C47.7741 49.0866 47.3844 49.1367 46.9561 49.1367C46.4775 49.1367 46.0127 49.0547 45.5615 48.8906C45.1104 48.7266 44.7389 48.4736 44.4473 48.1318C44.1556 47.7855 44.0098 47.3457 44.0098 46.8125H45.2744C45.2744 47.0358 45.3451 47.2477 45.4863 47.4482C45.6276 47.6488 45.8236 47.8105 46.0742 47.9336C46.3294 48.0566 46.6234 48.1182 46.9561 48.1182C47.3115 48.1182 47.6077 48.0635 47.8447 47.9541C48.0817 47.8447 48.2594 47.6989 48.3779 47.5166C48.501 47.3343 48.5625 47.1361 48.5625 46.9219C48.5625 46.6439 48.5078 46.4206 48.3984 46.252C48.2891 46.0833 48.1204 45.9603 47.8926 45.8828C47.6693 45.8008 47.3822 45.7598 47.0312 45.7598H45.7734V44.9873ZM56.499 44.8096V45.835H52.5889V44.8096H56.499ZM52.8555 41.6035V49H51.5908V41.6035H52.8555ZM57.5244 41.6035V49H56.2529V41.6035H57.5244ZM62.6309 49.1367C62.1159 49.1367 61.6488 49.0501 61.2295 48.877C60.8148 48.6992 60.457 48.4508 60.1562 48.1318C59.86 47.8128 59.6322 47.4346 59.4727 46.9971C59.3132 46.5596 59.2334 46.0811 59.2334 45.5615V45.2744C59.2334 44.6729 59.3223 44.1374 59.5 43.668C59.6777 43.194 59.9193 42.793 60.2246 42.4648C60.5299 42.1367 60.8763 41.8883 61.2637 41.7197C61.651 41.5511 62.0521 41.4668 62.4668 41.4668C62.9954 41.4668 63.4512 41.5579 63.834 41.7402C64.2214 41.9225 64.5381 42.1777 64.7842 42.5059C65.0303 42.8294 65.2126 43.2122 65.3311 43.6543C65.4495 44.0918 65.5088 44.5703 65.5088 45.0898V45.6572H59.9854V44.625H64.2441V44.5293C64.2259 44.2012 64.1576 43.8822 64.0391 43.5723C63.9251 43.2624 63.7428 43.0072 63.4922 42.8066C63.2415 42.6061 62.8997 42.5059 62.4668 42.5059C62.1797 42.5059 61.9154 42.5674 61.6738 42.6904C61.4323 42.8089 61.2249 42.9867 61.0518 43.2236C60.8786 43.4606 60.7441 43.75 60.6484 44.0918C60.5527 44.4336 60.5049 44.8278 60.5049 45.2744V45.5615C60.5049 45.9124 60.5527 46.2428 60.6484 46.5527C60.7487 46.8581 60.8923 47.127 61.0791 47.3594C61.2705 47.5918 61.5007 47.7741 61.7695 47.9062C62.043 48.0384 62.3529 48.1045 62.6992 48.1045C63.1458 48.1045 63.5241 48.0133 63.834 47.8311C64.1439 47.6488 64.415 47.4049 64.6475 47.0996L65.4131 47.708C65.2536 47.9495 65.0508 48.1797 64.8047 48.3984C64.5586 48.6172 64.2555 48.7949 63.8955 48.9316C63.54 49.0684 63.1185 49.1367 62.6309 49.1367ZM69.9453 48.0977C70.2461 48.0977 70.5241 48.0361 70.7793 47.9131C71.0345 47.79 71.2441 47.6214 71.4082 47.4072C71.5723 47.1885 71.6657 46.9401 71.6885 46.6621H72.8916C72.8688 47.0996 72.7207 47.5075 72.4473 47.8857C72.1784 48.2594 71.8252 48.5625 71.3877 48.7949C70.9502 49.0228 70.4694 49.1367 69.9453 49.1367C69.3893 49.1367 68.904 49.0387 68.4893 48.8428C68.0791 48.6468 67.7373 48.3779 67.4639 48.0361C67.195 47.6943 66.9922 47.3024 66.8555 46.8604C66.7233 46.4137 66.6572 45.9421 66.6572 45.4453V45.1582C66.6572 44.6615 66.7233 44.1921 66.8555 43.75C66.9922 43.3034 67.195 42.9092 67.4639 42.5674C67.7373 42.2256 68.0791 41.9567 68.4893 41.7607C68.904 41.5648 69.3893 41.4668 69.9453 41.4668C70.5241 41.4668 71.0299 41.5853 71.4629 41.8223C71.8958 42.0547 72.2354 42.3737 72.4814 42.7793C72.7321 43.1803 72.8688 43.6361 72.8916 44.1465H71.6885C71.6657 43.8411 71.5791 43.5654 71.4287 43.3193C71.2829 43.0732 71.0824 42.8773 70.8271 42.7314C70.5765 42.5811 70.2826 42.5059 69.9453 42.5059C69.5579 42.5059 69.2321 42.5833 68.9678 42.7383C68.708 42.8887 68.5007 43.0938 68.3457 43.3535C68.1953 43.6087 68.0859 43.8936 68.0176 44.208C67.9538 44.5179 67.9219 44.8346 67.9219 45.1582V45.4453C67.9219 45.7689 67.9538 46.0879 68.0176 46.4023C68.0814 46.7168 68.1885 47.0016 68.3389 47.2568C68.4938 47.512 68.7012 47.7171 68.9609 47.8721C69.2253 48.0225 69.5534 48.0977 69.9453 48.0977ZM78.6748 47.7354V43.9277C78.6748 43.6361 78.6156 43.3831 78.4971 43.1689C78.3831 42.9502 78.21 42.7816 77.9775 42.6631C77.7451 42.5446 77.458 42.4854 77.1162 42.4854C76.7972 42.4854 76.5169 42.54 76.2754 42.6494C76.0384 42.7588 75.8516 42.9023 75.7148 43.0801C75.5827 43.2578 75.5166 43.4492 75.5166 43.6543H74.252C74.252 43.39 74.3203 43.1279 74.457 42.8682C74.5938 42.6084 74.7897 42.3737 75.0449 42.1641C75.3047 41.9499 75.6146 41.7812 75.9746 41.6582C76.3392 41.5306 76.7448 41.4668 77.1914 41.4668C77.7292 41.4668 78.2031 41.5579 78.6133 41.7402C79.028 41.9225 79.3516 42.1982 79.584 42.5674C79.821 42.932 79.9395 43.39 79.9395 43.9414V47.3867C79.9395 47.6328 79.96 47.8949 80.001 48.1729C80.0465 48.4508 80.1126 48.6901 80.1992 48.8906V49H78.8799C78.8161 48.8542 78.766 48.6605 78.7295 48.4189C78.693 48.1729 78.6748 47.945 78.6748 47.7354ZM78.8936 44.5156L78.9072 45.4043H77.6289C77.2689 45.4043 76.9476 45.4339 76.665 45.4932C76.3825 45.5479 76.1455 45.6322 75.9541 45.7461C75.7627 45.86 75.6169 46.0036 75.5166 46.1768C75.4163 46.3454 75.3662 46.5436 75.3662 46.7715C75.3662 47.0039 75.4186 47.2158 75.5234 47.4072C75.6283 47.5986 75.7855 47.7513 75.9951 47.8652C76.2093 47.9746 76.4714 48.0293 76.7812 48.0293C77.1686 48.0293 77.5104 47.9473 77.8066 47.7832C78.1029 47.6191 78.3376 47.4186 78.5107 47.1816C78.6885 46.9447 78.7842 46.7145 78.7979 46.4912L79.3379 47.0996C79.306 47.291 79.2194 47.5029 79.0781 47.7354C78.9368 47.9678 78.7477 48.1911 78.5107 48.4053C78.2783 48.6149 78.0003 48.7904 77.6768 48.9316C77.3577 49.0684 76.9977 49.1367 76.5967 49.1367C76.0954 49.1367 75.6556 49.0387 75.2773 48.8428C74.9036 48.6468 74.612 48.3848 74.4023 48.0566C74.1973 47.724 74.0947 47.3525 74.0947 46.9424C74.0947 46.5459 74.1722 46.1973 74.3271 45.8965C74.4821 45.5911 74.7054 45.3382 74.9971 45.1377C75.2887 44.9326 75.6396 44.7777 76.0498 44.6729C76.46 44.568 76.918 44.5156 77.4238 44.5156H78.8936Z" fill="black"/>
<defs>
<clipPath id="clip0_105_10">
<rect width="165" height="33" fill="white"/>
</clipPath>
</defs>
</svg>
